<svg xmlns="http://www.w3.org/2000/svg" viewBox="0 0 200 200" fill="none">
  <path d="M100 20 L112 52 L100 84 L88 52 Z" fill="#FFFFFF"></path>
  <path d="M140 30.72 L134.39 64.43 L108 86.14 L113.61 52.43 Z" fill="#FFFFFF"></path>
  <path d="M169.28 60 L147.57 86.39 L113.86 92 L135.57 65.61 Z" fill="#FFFFFF"></path>
  <path d="M180 100 L148 112 L116 100 L148 88 Z" fill="#FFFFFF"></path>
  <path d="M169.28 140 L135.57 134.39 L113.86 108 L147.57 113.61 Z" fill="#FFFFFF"></path>
  <path d="M140 169.28 L113.61 147.57 L108 113.86 L134.39 135.57 Z" fill="#FFFFFF"></path>
  <path d="M100 180 L88 148 L100 116 L112 148 Z" fill="#FFFFFF"></path>
  <path d="M60 169.28 L65.61 135.57 L92 113.86 L86.39 147.57 Z" fill="#FFFFFF"></path>
  <path d="M30.72 140 L52.43 113.61 L86.14 108 L64.43 134.39 Z" fill="#FFFFFF"></path>
  <path d="M20 100 L52 88 L84 100 L52 112 Z" fill="#FFFFFF"></path>
  <path d="M30.72 60 L64.43 65.61 L86.14 92 L52.43 86.39 Z" fill="#FFFFFF"></path>
  <path d="M60 30.72 L86.39 52.43 L92 86.14 L65.61 64.43 Z" fill="#FFFFFF"></path>
</svg>
