<svg xmlns="http://www.w3.org/2000/svg" width="1200" height="630" viewBox="0 0 1200 630">
  <defs>
    <radialGradient id="bg-glow" cx="22%" cy="35%" r="60%">
      <stop offset="0%" stop-color="rgba(63,193,212,0.18)"/>
      <stop offset="60%" stop-color="rgba(63,193,212,0.04)"/>
      <stop offset="100%" stop-color="rgba(5,26,35,0)"/>
    </radialGradient>
    <filter id="star-glow">
      <feGaussianBlur stdDeviation="14" result="blur"/>
      <feMerge>
        <feMergeNode in="blur"/>
        <feMergeNode in="SourceGraphic"/>
      </feMerge>
    </filter>
  </defs>

  <rect width="1200" height="630" fill="#051a23"/>
  <rect width="1200" height="630" fill="url(#bg-glow)"/>

  <!-- Logo mark (scaled from 200x200 viewBox to 240px centred at x=200, y=315) -->
  <g transform="translate(80, 195) scale(1.2)" filter="url(#star-glow)">
    <path d="M100 20 L112 52 L100 84 L88 52 Z" fill="#FFFFFF"/>
    <path d="M140 30.72 L134.39 64.43 L108 86.14 L113.61 52.43 Z" fill="#FFFFFF"/>
    <path d="M169.28 60 L147.57 86.39 L113.86 92 L135.57 65.61 Z" fill="#FFFFFF"/>
    <path d="M180 100 L148 112 L116 100 L148 88 Z" fill="#FFFFFF"/>
    <path d="M169.28 140 L135.57 134.39 L113.86 108 L147.57 113.61 Z" fill="#FFFFFF"/>
    <path d="M140 169.28 L113.61 147.57 L108 113.86 L134.39 135.57 Z" fill="#FFFFFF"/>
    <path d="M100 180 L88 148 L100 116 L112 148 Z" fill="#FFFFFF"/>
    <path d="M60 169.28 L65.61 135.57 L92 113.86 L86.39 147.57 Z" fill="#FFFFFF"/>
    <path d="M30.72 140 L52.43 113.61 L86.14 108 L64.43 134.39 Z" fill="#FFFFFF"/>
    <path d="M20 100 L52 88 L84 100 L52 112 Z" fill="#FFFFFF"/>
    <path d="M30.72 60 L64.43 65.61 L86.14 92 L52.43 86.39 Z" fill="#FFFFFF"/>
    <path d="M60 30.72 L86.39 52.43 L92 86.14 L65.61 64.43 Z" fill="#FFFFFF"/>
  </g>

  <!-- Brand wordmark -->
  <text x="430" y="240" font-family="'Sora','Plus Jakarta Sans',system-ui,sans-serif" font-size="44" font-weight="500" letter-spacing="-1" fill="#FFFFFF">
    A Light in the Sky
  </text>

  <!-- Headline -->
  <text x="430" y="340" font-family="'Sora','Plus Jakarta Sans',system-ui,sans-serif" font-size="58" font-weight="500" letter-spacing="-2" fill="#FFFFFF">
    You built something real.
  </text>
  <text x="430" y="408" font-family="'Sora','Plus Jakarta Sans',system-ui,sans-serif" font-size="38" font-weight="300" letter-spacing="-0.5" fill="#DC4413" font-style="italic">
    We make sure the world can find it.
  </text>

  <!-- Eyebrow / category tag -->
  <text x="430" y="490" font-family="'JetBrains Mono','DM Mono',monospace" font-size="16" font-weight="500" letter-spacing="3" fill="#3FC1D4">
    GEO · WEBSITES · AI · AUTOMATION
  </text>
</svg>
