<svg xmlns="http://www.w3.org/2000/svg" width="1200" height="630" viewBox="0 0 1200 630">
  <defs>
    <radialGradient id="bg-glow" cx="22%" cy="35%" r="60%">
      <stop offset="0%" stop-color="rgba(63,193,212,0.18)"/>
      <stop offset="60%" stop-color="rgba(63,193,212,0.04)"/>
      <stop offset="100%" stop-color="rgba(5,26,35,0)"/>
    </radialGradient>
    <filter id="star-glow">
      <feGaussianBlur stdDeviation="14" result="blur"/>
      <feMerge>
        <feMergeNode in="blur"/>
        <feMergeNode in="SourceGraphic"/>
      </feMerge>
    </filter>
  </defs>

  <rect width="1200" height="630" fill="#051a23"/>
  <rect width="1200" height="630" fill="url(#bg-glow)"/>

  <!-- Logo mark (scaled from 200x200 viewBox to 240px centred at x=200, y=315) -->
  <g transform="translate(80, 195) scale(1.2)" filter="url(#star-glow)">
    <path d="M100 24 L109 53 L100 82 L91 53 Z" fill="#FFFFFF"/>
    <path d="M138 34.18 L131.29 63.8 L109 84.41 L115.71 54.8 Z" fill="#FFFFFF"/>
    <path d="M165.82 62 L145.2 84.29 L115.59 91 L136.2 68.71 Z" fill="#FFFFFF"/>
    <path d="M176 100 L147 109 L118 100 L147 91 Z" fill="#FFFFFF"/>
    <path d="M165.82 138 L136.2 131.29 L115.59 109 L145.2 115.71 Z" fill="#FFFFFF"/>
    <path d="M138 165.82 L115.71 145.2 L109 115.59 L131.29 136.2 Z" fill="#FFFFFF"/>
    <path d="M100 176 L91 147 L100 118 L109 147 Z" fill="#FFFFFF"/>
    <path d="M62 165.82 L68.71 136.2 L91 115.59 L84.29 145.2 Z" fill="#FFFFFF"/>
    <path d="M34.18 138 L54.8 115.71 L84.41 109 L63.8 131.29 Z" fill="#FFFFFF"/>
    <path d="M24 100 L53 91 L82 100 L53 109 Z" fill="#FFFFFF"/>
    <path d="M34.18 62 L63.8 68.71 L84.41 91 L54.8 84.29 Z" fill="#FFFFFF"/>
    <path d="M62 34.18 L84.29 54.8 L91 84.41 L68.71 63.8 Z" fill="#FFFFFF"/>
    <line x1="106.73" y1="74.89" x2="122.78" y2="15" stroke="#FFFFFF" stroke-width="2"/>
    <line x1="118.38" y1="81.62" x2="162.23" y2="37.77" stroke="#FFFFFF" stroke-width="2"/>
    <line x1="125.11" y1="93.27" x2="185" y2="77.22" stroke="#FFFFFF" stroke-width="2"/>
    <line x1="125.11" y1="106.73" x2="185" y2="122.78" stroke="#FFFFFF" stroke-width="2"/>
    <line x1="118.38" y1="118.38" x2="162.23" y2="162.23" stroke="#FFFFFF" stroke-width="2"/>
    <line x1="106.73" y1="125.11" x2="122.78" y2="185" stroke="#FFFFFF" stroke-width="2"/>
    <line x1="93.27" y1="125.11" x2="77.22" y2="185" stroke="#FFFFFF" stroke-width="2"/>
    <line x1="81.62" y1="118.38" x2="37.77" y2="162.23" stroke="#FFFFFF" stroke-width="2"/>
    <line x1="74.89" y1="106.73" x2="15" y2="122.78" stroke="#FFFFFF" stroke-width="2"/>
    <line x1="74.89" y1="93.27" x2="15" y2="77.22" stroke="#FFFFFF" stroke-width="2"/>
    <line x1="81.62" y1="81.62" x2="37.77" y2="37.77" stroke="#FFFFFF" stroke-width="2"/>
    <line x1="93.27" y1="74.89" x2="77.22" y2="15" stroke="#FFFFFF" stroke-width="2"/>
  </g>

  <!-- Brand wordmark -->
  <text x="430" y="240" font-family="'Sora','Plus Jakarta Sans',system-ui,sans-serif" font-size="44" font-weight="500" letter-spacing="-1" fill="#FFFFFF">
    A Light in the Sky
  </text>

  <!-- Headline -->
  <text x="430" y="340" font-family="'Sora','Plus Jakarta Sans',system-ui,sans-serif" font-size="58" font-weight="500" letter-spacing="-2" fill="#FFFFFF">
    You built something real.
  </text>
  <text x="430" y="410" font-family="'Sora','Plus Jakarta Sans',system-ui,sans-serif" font-size="46" font-weight="300" letter-spacing="-1" fill="#DC4413" font-style="italic">
    We make sure the world can find it.
  </text>

  <!-- Eyebrow / category tag -->
  <text x="430" y="490" font-family="'JetBrains Mono','DM Mono',monospace" font-size="16" font-weight="500" letter-spacing="3" fill="#3FC1D4">
    GEO · WEBSITES · AI · AUTOMATION
  </text>
</svg>
